#N canvas 468 -772 689 297 12;
#X obj 280 21 notein;
#X floatatom 248 65 5 0 0 0 - - - 0;
#X floatatom 293 66 5 0 0 0 - - - 0;
#X floatatom 342 66 5 0 0 0 - - - 0;
#X obj 273 269 dac~;
#X obj 255 178 mtof;
#X obj 343 179 f 1;
#X floatatom 481 186 3 0 0 0 - - - 0;
#X floatatom 500 215 3 0 0 0 - - - 0;
#X floatatom 520 243 2 0 0 0 - - - 0;
#X obj 481 270 ctlout;
#X text 510 187 value;
#X text 539 244 channel;
#X text 524 216 controller #;
#X obj 463 222 f;
#X obj 418 63 tgl 19 0 empty empty empty 17 7 0 10 #dfdfdf #000000 #000000 0 1;
#X msg 581 28 0.5;
#X msg 617 28 1;
#X msg 546 28 4;
#X text 560 6 beat length;
#X msg 451 63 tempo \$1 permin;
#X floatatom 451 27 5 0 0 0 - - - 0;
#X floatatom 581 89 5 0 0 0 - - - 0;
#X obj 581 65 expr 1/$f1;
#X obj 451 184 bng 19 250 50 0 empty empty empty 17 7 0 10 #dfdfdf #000000 #000000;
#X obj 221 125 + 60;
#X obj 255 213 pd/instr/chimes~;
#X obj 451 115 metro 1 30 permin, f 19;
#X connect 0 0 1 0;
#X connect 0 1 2 0;
#X connect 0 2 3 0;
#X connect 1 0 25 0;
#X connect 2 0 6 0;
#X connect 5 0 26 0;
#X connect 6 0 26 1;
#X connect 7 0 14 1;
#X connect 8 0 10 1;
#X connect 9 0 10 2;
#X connect 14 0 10 0;
#X connect 15 0 27 0;
#X connect 16 0 23 0;
#X connect 17 0 23 0;
#X connect 18 0 23 0;
#X connect 20 0 27 0;
#X connect 21 0 20 0;
#X connect 22 0 27 1;
#X connect 23 0 22 0;
#X connect 24 0 14 0;
#X connect 25 0 5 0;
#X connect 26 0 4 0;
#X connect 26 0 4 1;
#X connect 27 0 24 0;
