#N canvas 468 581 809 175 12;
#X obj 621 22 notein;
#X floatatom 608 68 5 0 0 0 - - -;
#X floatatom 657 67 5 0 0 0 - - -;
#X floatatom 700 67 5 0 0 0 - - -;
#X obj 590 209 dac~;
#X obj 733 143 f 1;
#X obj 146 3 loadbang;
#X floatatom 13 43 5 0 0 0 - - -;
#X obj 20 194 ctlout 1 0;
#X text 97 195 BPM: val \, 1 \, ch0;
#X obj 14 12 i 60;
#X obj 19 146 expr if ($f1 > 0 && $f1 < 128 \, $f1 \, 0);
#X obj 20 171 sel 0;
#X obj 10 222 expr if ($f1 > 127 && $f1 < 256 \, $f1+127 \, 0);
#X obj 9 243 sel 0;
#X obj 6 267 ctlout 2 0;
#X text 89 268 BPM: val \, 2 \, ch0;
#X obj 364 162 bng 15 250 50 0 empty empty empty 17 7 0 10 -262144
-1 -1;
#X text 461 189 START LEARN;
#X text 462 235 STOP LEARN;
#X obj 367 308 ctlout 0 0;
#X text 444 308 STOP LEARN and generate;
#X floatatom 367 280 5 0 0 0 - - -;
#X obj 367 124 ctlout 0 0;
#X floatatom 367 97 5 0 0 0 - - -;
#X floatatom 410 96 5 0 0 0 - - -;
#X text 444 124 set meter;
#X obj 366 43 trigger b b;
#X obj 367 68 i 4;
#X obj 410 68 i 4;
#X obj 596 171 pd/instr/_old/piano~;
#X obj 389 161 i 0;
#X obj 365 189 ctlout 0 0;
#X obj 366 235 ctlout 1 0;
#X obj 362 213 bng 15 250 50 0 empty empty empty 17 7 0 10 -262144
-1 -1;
#X obj 386 211 i 0;
#X obj 73 11 bng 15 250 50 0 empty empty empty 17 7 0 10 -262144 -1
-1;
#X obj 156 91 metro;
#X obj 188 47 expr 60000/$f1;
#X floatatom 188 68 5 0 0 0 - - -;
#X obj 153 71 tgl 15 0 empty empty empty 17 7 0 10 -262144 -1 -1 0
1;
#X obj 140 114 pd/instr/170615-Snare-V2;
#X text 103 34 set BPM;
#X obj 617 113 noteout 1;
#X text 692 109 channel 1 to avoid loop;
#X connect 0 0 1 0;
#X connect 0 1 2 0;
#X connect 0 2 3 0;
#X connect 1 0 30 0;
#X connect 1 0 43 0;
#X connect 2 0 5 0;
#X connect 2 0 43 1;
#X connect 5 0 30 1;
#X connect 6 0 36 0;
#X connect 7 0 11 0;
#X connect 7 0 13 0;
#X connect 7 0 38 0;
#X connect 10 0 7 0;
#X connect 11 0 12 0;
#X connect 12 1 8 0;
#X connect 13 0 14 0;
#X connect 14 1 15 0;
#X connect 17 0 31 0;
#X connect 22 0 20 0;
#X connect 24 0 23 0;
#X connect 25 0 23 1;
#X connect 27 0 28 0;
#X connect 27 1 29 0;
#X connect 28 0 24 0;
#X connect 29 0 25 0;
#X connect 30 0 4 0;
#X connect 30 0 4 1;
#X connect 31 0 32 0;
#X connect 34 0 35 0;
#X connect 35 0 33 0;
#X connect 36 0 27 0;
#X connect 36 0 10 0;
#X connect 37 0 41 0;
#X connect 38 0 39 0;
#X connect 39 0 37 1;
#X connect 40 0 37 0;
